<svg width="1920" height="320" viewBox="0 0 1920 320" fill="none" xmlns="http://www.w3.org/2000/svg">
<g clip-path="url(#clip0_1_2)">
<rect width="1920" height="320" fill="black"/>
<circle cx="959.5" cy="160.5" r="454.5" fill="#FFFF00" fill-opacity="0.2"/>
<path d="M716.839 207H680.103C679.079 207 678.567 206.488 678.567 205.464V198.936C678.567 197.912 679.079 197.4 680.103 197.4H689.958V124.696H680.103C679.079 124.696 678.567 124.184 678.567 123.16V116.632C678.567 115.608 679.079 115.096 680.103 115.096H714.663C728.828 115.096 740.092 119.192 748.455 127.384C756.817 135.491 760.999 146.669 760.999 160.92C760.999 175.171 757.031 186.435 749.095 194.712C741.159 202.904 730.407 207 716.839 207ZM701.095 197.4H713.767C737.489 197.229 749.351 185.155 749.351 161.176C749.351 149.656 746.279 140.696 740.135 134.296C734.076 127.896 725.159 124.696 713.383 124.696H701.095V197.4ZM833.9 207H822.764C819.094 207 817.26 205.208 817.26 201.624V195.096H817.004C810.774 203.715 802.454 208.024 792.044 208.024C785.9 208.024 780.865 206.445 776.94 203.288C773.014 200.045 771.052 195.693 771.052 190.232C771.052 183.235 774.081 178.115 780.14 174.872C786.284 171.544 794.689 169.88 805.356 169.88H816.108V168.344C816.108 157.677 810.561 152.344 799.468 152.344C794.262 152.344 790.508 152.856 788.204 153.88C785.9 154.819 784.236 155.587 783.212 156.184C782.273 156.781 781.548 157.251 781.036 157.592C779.756 158.616 778.817 158.701 778.22 157.848L774.635 153.368C774.038 152.685 774.124 152.003 774.892 151.32C776.342 149.443 779.329 147.608 783.852 145.816C788.374 144.024 793.708 143.128 799.852 143.128C817.772 143.128 826.732 151.661 826.732 168.728V198.424H833.9C834.924 198.424 835.436 198.936 835.436 199.96V205.464C835.436 206.488 834.924 207 833.9 207ZM816.108 177.56H805.996C801.046 177.56 796.95 177.816 793.708 178.328C790.465 178.84 787.692 179.949 785.388 181.656C783.169 183.363 782.06 185.709 782.06 188.696C782.06 191.683 783.254 194.157 785.644 196.12C788.118 197.997 791.318 198.936 795.244 198.936C803.521 198.936 810.476 195.267 816.108 187.928V177.56ZM871.164 207H846.716C845.606 207 845.052 206.488 845.052 205.464V199.96C845.052 198.936 845.606 198.424 846.716 198.424H853.756V152.6H846.716C845.606 152.6 845.052 152.088 845.052 151.064V145.56C845.052 144.536 845.606 144.024 846.716 144.024H861.692C862.801 144.024 863.356 144.536 863.356 145.56V161.56H863.74C863.996 160.195 864.892 158.317 866.428 155.928C867.964 153.539 869.628 151.576 871.42 150.04C873.297 148.419 875.942 146.968 879.356 145.688C882.854 144.408 886.78 143.768 891.132 143.768C892.241 143.768 892.796 144.323 892.796 145.432V152.216C892.796 153.325 892.241 153.88 891.132 153.88H888.444C881.105 153.88 875.26 156.227 870.908 160.92C866.556 165.613 864.38 170.947 864.38 176.92V198.424H871.164C872.273 198.424 872.828 198.936 872.828 199.96V205.464C872.828 206.488 872.273 207 871.164 207ZM927.471 205.592C926.105 205.592 924.996 204.525 924.143 202.392L904.559 152.6H897.519C896.495 152.6 895.983 152.088 895.983 151.064V145.56C895.983 144.536 896.495 144.024 897.519 144.024H920.687C921.796 144.024 922.351 144.536 922.351 145.56V151.064C922.351 152.088 921.796 152.6 920.687 152.6H915.439L931.951 195.992H932.207L947.567 152.6H941.807C940.783 152.6 940.271 152.088 940.271 151.064V145.56C940.271 144.536 940.783 144.024 941.807 144.024H965.615C966.639 144.024 967.151 144.536 967.151 145.56V151.064C967.151 152.088 966.639 152.6 965.615 152.6H958.447L935.663 215.192C932.847 222.787 929.903 228.291 926.831 231.704C923.844 235.203 919.705 236.952 914.415 236.952C909.209 236.952 904.729 235.288 900.975 231.96C900.121 231.107 899.993 230.339 900.591 229.656L903.791 225.56C904.559 224.963 905.327 224.92 906.095 225.432C908.143 227.053 910.575 227.864 913.391 227.864C916.207 227.864 918.511 226.883 920.303 224.92C922.18 223.043 923.972 219.757 925.679 215.064L929.135 205.592H927.471ZM998.664 207H974.216C973.106 207 972.552 206.488 972.552 205.464V199.96C972.552 198.936 973.106 198.424 974.216 198.424H981.256V123.672H974.216C973.106 123.672 972.552 123.16 972.552 122.136V116.632C972.552 115.608 973.106 115.096 974.216 115.096H988.424C990.728 115.096 991.88 116.163 991.88 118.296V198.424H998.664C999.773 198.424 1000.33 198.936 1000.33 199.96V205.464C1000.33 206.488 999.773 207 998.664 207ZM1036.16 207H1011.72C1010.61 207 1010.05 206.488 1010.05 205.464V199.96C1010.05 198.936 1010.61 198.424 1011.72 198.424H1018.76V123.672H1011.72C1010.61 123.672 1010.05 123.16 1010.05 122.136V116.632C1010.05 115.608 1010.61 115.096 1011.72 115.096H1025.92C1028.23 115.096 1029.38 116.163 1029.38 118.296V198.424H1036.16C1037.27 198.424 1037.83 198.936 1037.83 199.96V205.464C1037.83 206.488 1037.27 207 1036.16 207ZM1172.67 207H1161.53C1158.46 207 1155.9 204.952 1153.85 200.856L1141.82 176.408C1141.14 175.043 1140.5 173.976 1139.9 173.208C1139.39 172.44 1138.19 171.672 1136.32 170.904C1134.52 170.136 1132.26 169.752 1129.53 169.752H1111.48V197.4H1123.26C1124.37 197.4 1124.92 197.912 1124.92 198.936V205.464C1124.92 206.488 1124.37 207 1123.26 207H1090.62C1089.51 207 1088.96 206.488 1088.96 205.464V198.936C1088.96 197.912 1089.51 197.4 1090.62 197.4H1100.35V124.696H1090.62C1089.51 124.696 1088.96 124.184 1088.96 123.16V116.632C1088.96 115.608 1089.51 115.096 1090.62 115.096H1119.29C1120.32 115.096 1120.83 115.608 1120.83 116.632V123.16C1120.83 124.184 1120.32 124.696 1119.29 124.696H1111.48V160.664H1124.92C1133.97 160.664 1140.67 158.019 1145.02 152.728C1149.46 147.352 1151.68 138.008 1151.68 124.696H1142.97C1141.95 124.696 1141.44 124.184 1141.44 123.16V116.632C1141.44 115.608 1141.95 115.096 1142.97 115.096H1171.52C1172.54 115.096 1173.05 115.608 1173.05 116.632V123.16C1173.05 124.184 1172.54 124.696 1171.52 124.696H1162.68C1162.68 145.261 1156.88 158.701 1145.28 165.016C1147.24 165.955 1148.78 167.192 1149.88 168.728C1150.99 170.179 1152.27 172.355 1153.72 175.256L1164.86 197.4H1172.67C1173.69 197.4 1174.2 197.912 1174.2 198.936V205.464C1174.2 206.488 1173.69 207 1172.67 207ZM1231.96 198.936C1225.99 204.909 1218.35 207.896 1209.05 207.896C1199.75 207.896 1192.11 204.952 1186.14 199.064C1180.16 193.091 1177.18 185.197 1177.18 175.384C1177.18 165.485 1180.21 157.635 1186.26 151.832C1192.32 146.029 1199.92 143.128 1209.05 143.128C1218.26 143.128 1225.86 146.072 1231.83 151.96C1237.89 157.763 1240.92 165.571 1240.92 175.384C1240.92 185.112 1237.93 192.963 1231.96 198.936ZM1187.93 175.384C1187.93 182.381 1189.98 188.056 1194.07 192.408C1198.17 196.76 1203.16 198.936 1209.05 198.936C1215.02 198.936 1220.06 196.76 1224.15 192.408C1228.25 188.056 1230.3 182.381 1230.3 175.384C1230.3 168.387 1228.21 162.755 1224.02 158.488C1219.93 154.221 1214.98 152.088 1209.18 152.088C1203.37 152.088 1198.38 154.221 1194.2 158.488C1190.02 162.755 1187.93 168.387 1187.93 175.384Z" fill="white"/>
</g>
<defs>
<clipPath id="clip0_1_2">
<rect width="1920" height="320" fill="white"/>
</clipPath>
</defs>
</svg>
